<svg xmlns="http://www.w3.org/2000/svg" width="5120" height="2880"><path fill="#6a6985" d="M0 2615.25V2350.5l564.75-564.75L1129.502 1221l251.999 252 251.999 252 454.25-454.25L2542 816.5l458.75 458.75c252.313 252.313 459.2 458.75 459.75 458.75.549 0 115.633-114.634 255.741-254.741l254.743-254.742 574.5 574.492 574.5 574.491.01 253.25.01 253.25H.005v-264.75z"/><path fill="#d05c4d" d="M4718 1971.5L4556.5 1810l281.75-281.75L5120 1246.5V1893.503l-119.752 119.749c-65.863 65.861-119.976 119.748-120.25 119.748-.275 0-73.174-72.675-161.998-161.5zm-1855-834.25L2541.5 815.5l321.75 321.5c176.963 176.824 321.75 321.612 321.75 321.75 0 .137-.113.25-.25.25-.138 0-144.926-144.787-321.75-321.75zM918.5 477.017L441.5 0h1910.865l-477.32 476.75c-262.527 262.212-477.822 476.87-478.433 477.017-.612.146-215.762-214.391-478.112-476.75zM3220 474.5L2745.5 0h1898L4169 474.5 3694.5 949 3220 474.5z"/><path fill="#ec732d" d="M1648.252 1206.749L1396.5 955.002l477.5-477.5L2351.5 0h394L3220 474.5 3694.5 949l-254.75 254.75L3185 1458.5l-321.25-321.25L2542.5 816l-321.248 321.248-321.248 321.247z"/><path fill="#66a255" d="M2220.907 1779.25l-321-320.75 321.047-321L2542 816.5l321.25 321.25L3184.5 1459 2864 1779.5c-176.274 176.275-320.858 320.5-321.297 320.5-.439 0-145.247-144.338-321.797-320.75zm1101.592-182.5L3184.5 1458.5l138.25 137.999c76.037 75.899 138.25 138.111 138.25 138.25a.252.252 0 0 1-.251.251c-.139 0-62.351-62.212-138.25-138.25z"/><path fill="#dd7263" d="M3691 1503.5c126.774-126.775 230.723-230.5 230.998-230.5.275 0-103.224 103.725-229.998 230.5-126.774 126.775-230.723 230.5-230.998 230.5-.275 0 103.224-103.725 229.998-230.5zM816.25 907.75L0 91.5V0H441.497L919 477.499l477.503 477.499-133 133L1130.5 1221 1382 1472.5c138.324 138.325 251.274 251.5 250.999 251.5-.275 0-367.812-367.313-816.75-816.25zM1766.5 1591c73.148-73.15 133.222-133 133.497-133 .275 0-59.349 59.85-132.497 133-73.148 73.15-133.222 133-133.497 133-.275 0 59.349-59.85 132.497-133zm2066-504l-137.998-138.001L4169 474.499 4643.498 0H5120v75.5l-574.75 574.75-574.752 574.751z"/><g><path fill="#fda547" d="M3322.715 1596.215l-137.714-137.717 254.75-254.75L3694.502 949l137.992 137.995 137.992 137.994-4.493 4.323c-2.471 2.378-117.234 116.89-255.028 254.472l-250.535 250.15zM1382 1472.5L1130.501 1221l133-133 133-133L1648 1206.5l251.499 251.5-133 133-133 133z"/><path fill="#dd7263" d="M3691 1503.5c126.774-126.775 230.723-230.5 230.998-230.5.275 0-103.224 103.725-229.998 230.5-126.774 126.775-230.723 230.5-230.998 230.5-.275 0 103.224-103.725 229.998-230.5zM816.25 907.75L0 91.5V0H441.497L919 477.499l477.503 477.499-133 133L1130.5 1221 1382 1472.5c138.324 138.325 251.274 251.5 250.999 251.5-.275 0-367.812-367.313-816.75-816.25zM1766.5 1591c73.148-73.15 133.222-133 133.497-133 .275 0-59.349 59.85-132.497 133-73.148 73.15-133.222 133-133.497 133-.275 0 59.349-59.85 132.497-133zm2066-504l-137.998-138.001L4169 474.499 4643.498 0H5120v75.5l-574.75 574.75-574.752 574.751z"/><path fill="#b4677b" d="M0 1221.25V91.5l565 565 565 565-564.75 564.75C254.638 2096.862.388 2351 .25 2351 .113 2351 0 1842.613 0 1221.25zm4263 296.25L3970.5 1225l574.75-574.75L5120 75.5v1171.001l-281.75 281.75C4683.286 1683.213 4556.273 1810 4555.998 1810c-.275 0-132.125-131.625-293-292.5z"/><path fill="#f1772d" d="M1648 1206.5L1396.5 955l321-320.968 321-320.967 251.57 251.398 251.57 251.399-321.071 321.069-321.07 321.07zm1215.5-69.5l-321-321 254.75-254.75L3052 306.5l321.25 321.25L3694.5 949 3440 1203.5c-139.974 139.975-254.724 254.5-255 254.5-.276 0-144.95-144.45-321.5-321z"/><path fill="#d05c4d" d="M2780 1054.25L2541.5 815.5l238.75 238.5C2911.563 1185.173 3019 1292.61 3019 1292.75c0 .137-.113.25-.25.25-.139 0-107.576-107.438-238.75-238.75zM918.5 477L441.5 0h1283.991L1882 156.497l156.508 156.496-320.505 320.504C1541.726 809.773 1397.05 954 1396.5 954c-.55 0-215.65-214.65-477.999-477zm2454.75 150.75L3052 306.497l153.252-153.25L3358.504-.002l642.248.251L4643.001.5 4168.75 474.75 3694.499 949z"/><path fill="#51978c" d="M2019.75 2623.75l256.249-256.248 133.75 133.577c73.563 73.468 135.01 134.105 136.548 134.75 3.865 1.618 8.214 1.464 12.003-.424 1.76-.878 61.138-59.49 131.95-130.25l128.751-128.653 251.75 251.749L3322.498 2880H1763.5z"/><path fill="#de652f" d="M2220.57 1137.18l321.069-321.319-251.57-251.397L2038.5 313.066l156.499-156.533L2351.498 0h394.004l153.249 153.25 153.248 153.252L2475.75 882.5c-316.937 316.8-431.768 431.405-255.18 254.68z"/><path fill="#66a255" d="M2220.907 1779.25l-321-320.75 321.047-321L2542 816.5l321.25 321.25L3184.5 1459 2864 1779.5c-176.274 176.275-320.858 320.5-321.297 320.5-.439 0-145.247-144.338-321.797-320.75zm1101.592-182.5L3184.5 1458.5l138.25 137.999c76.037 75.899 138.25 138.111 138.25 138.25a.252.252 0 0 1-.251.251c-.139 0-62.351-62.212-138.25-138.25z"/><path fill="#6c6885" d="M0 2615.75V2351.5l565-565 565-564.999 251.423 251.422 251.423 251.421-577.173 577.794L478.5 2879.933l-239.25.034L0 2880zm4033.75-308.5L3461 1734.498l254.75-254.75L3970.501 1225l574.75 574.75L5120 2374.5V2880h-513.5z"/><path fill="#a94f4e" d="M4718 1971.5L4556.5 1810l281.75-281.75L5120 1246.5V1893.503l-119.752 119.749c-65.863 65.861-119.976 119.748-120.25 119.748-.275 0-73.174-72.675-161.998-161.5zm-1616.502-595.75l-82.998-83.25 83.25 82.998c45.788 45.648 83.25 83.111 83.25 83.25a.253.253 0 0 1-.252.252c-.139 0-37.602-37.462-83.25-83.25zM1881.5 156L1725.502 0h625.996L2195.5 156c-85.799 85.8-156.449 156-157 156-.551 0-71.201-70.2-157-156zm1017-3L2745.503 0h612.994L3205.5 153c-84.149 84.15-153.224 153-153.5 153-.276 0-69.351-68.85-153.5-153z"/><path fill="#35838a" d="M900.5 2739.511l-141-140.4 437-437.055L1633.498 1725l321.25 321.25L2276 2367.498l-256.248 256.25L1763.5 2880l-361-.045-361.001-.045-141-140.4zm2170.25-111.262L2819 2376.5l320.75-320.75L3460.502 1735l454.498 454.5 454.499 454.499-117.997 118L4133.503 2880H3322.5z"/><path fill="#457285" d="M618.938 2739.562l140.436-140.438 134.563 133.86c74.01 73.624 137.475 136.821 141.034 140.439l6.471 6.577h-562.94zm3632.563 22.437l117.997-118-454.499-454.75c-327.975-328.156-295.057-295.376 118.251 117.75 315.013 314.876 572.75 572.613 572.75 572.75 0 .138-106.312.251-236.248.251h-236.249zM1196 2161.5c240.075-240.075 436.724-436.5 437-436.5.274 0-195.925 196.425-436 436.5S760.276 2598 760 2598c-.274 0 195.925-196.425 436-436.5z"/><path fill="#92454f" d="M4837.5 2091.75c-155.1-155.237-208.988-209.35-119.75-120.251L4880 2133.497l120-119.997 120-119.997v240.249c0 132.136-.113 240.248-.25 240.248-.138 0-127.151-127.012-282.25-282.25z"/><path fill="#4c8251" d="M2545.5 2635.481c-1.65-.745-207.525-205.909-457.5-455.918L1633.5 1725l133.25-133.25L1900 1458.502l285.25 285.002c156.887 156.75 301.563 301.2 321.502 320.996l36.253 35.995 320.748-320.747 320.749-320.748L3322.5 1597l137.998 138-448.999 449.066c-259.558 259.597-450.564 449.882-452.71 451-4.257 2.22-8.97 2.367-13.289.415z"/></g></svg>