<?xml version="1.0" encoding="UTF-8" standalone="no"?>
<svg
   xmlns:dc="http://purl.org/dc/elements/1.1/"
   xmlns:cc="http://creativecommons.org/ns#"
   xmlns:rdf="http://www.w3.org/1999/02/22-rdf-syntax-ns#"
   xmlns:svg="http://www.w3.org/2000/svg"
   xmlns="http://www.w3.org/2000/svg"
   xmlns:sodipodi="http://sodipodi.sourceforge.net/DTD/sodipodi-0.dtd"
   xmlns:inkscape="http://www.inkscape.org/namespaces/inkscape"
   viewBox="0 -256 1792 1408"
   version="1.1"
   id="svg3792"
   sodipodi:docname="email.svg"
   width="1792"
   height="1408"
   inkscape:version="0.92.2 2405546, 2018-03-11">
  <metadata
     id="metadata3798">
    <rdf:RDF>
      <cc:Work
         rdf:about="">
        <dc:format>image/svg+xml</dc:format>
        <dc:type
           rdf:resource="http://purl.org/dc/dcmitype/StillImage" />
        <dc:title></dc:title>
      </cc:Work>
    </rdf:RDF>
  </metadata>
  <defs
     id="defs3796" />
  <sodipodi:namedview
     pagecolor="#ffffff"
     bordercolor="#666666"
     borderopacity="1"
     objecttolerance="10"
     gridtolerance="10"
     guidetolerance="10"
     inkscape:pageopacity="0"
     inkscape:pageshadow="2"
     inkscape:window-width="1354"
     inkscape:window-height="1012"
     id="namedview3794"
     showgrid="false"
     fit-margin-top="0"
     fit-margin-left="0"
     fit-margin-right="0"
     fit-margin-bottom="0"
     inkscape:zoom="0.44378378"
     inkscape:cx="884.78065"
     inkscape:cy="831.81198"
     inkscape:window-x="559"
     inkscape:window-y="559"
     inkscape:window-maximized="0"
     inkscape:current-layer="svg3792" />
  <path
     d="M 1664,992 V 224 q -32,36 -69,66 -268,206 -426,338 -51,43 -83,67 -32,24 -86.5,48.5 Q 945,768 897,768 h -2 Q 847,768 792.5,743.5 738,719 706,695 674,671 623,628 465,496 197,290 160,260 128,224 v 768 q 0,13 9.5,22.5 9.5,9.5 22.5,9.5 h 1472 q 13,0 22.5,-9.5 9.5,-9.5 9.5,-22.5 z m 0,-1051 v -24.5 l -0.5,-13 q -0.5,-13 -3,-12.5 -2.5,0.5 -5.5,-9 -3,-9.5 -9,-7.5 -6,2 -14,-2.5 H 160 q -13,0 -22.5,9.5 -9.5,9.5 -9.5,22.5 0,168 147,284 193,152 401,317 6,5 35,29.5 29,24.5 46,37.5 17,13 44.5,31.5 27.5,18.5 50.5,27.5 23,9 43,9 h 2 q 20,0 43,-9 23,-9 50.5,-27.5 27.5,-18.5 44.5,-31.5 17,-13 46,-37.5 29,-24.5 35,-29.5 208,-165 401,-317 54,-43 100.5,-115.5 Q 1664,0 1664,-59 Z m 128,-37 V 992 q 0,66 -47,113 -47,47 -113,47 H 160 Q 94,1152 47,1105 0,1058 0,992 V -96 q 0,-66 47,-113 47,-47 113,-47 h 1472 q 66,0 113,47 47,47 47,113 z"
     id="path3790"
     inkscape:connector-curvature="0"
     style="fill:#808080;fill-opacity:1" />
</svg>
