<svg xmlns="http://www.w3.org/2000/svg" width="512" height="512">
  <path fill="gray" d="M176.736 511.649c-1.796-.276-7.394-2.28-14.924-5.342-41.248-16.772-77.624-44.434-105.613-80.313-30.635-39.272-49.624-86.99-54.511-136.986-.93-9.515-1.234-16.163-1.225-26.82.01-10.681.274-16.327 1.23-26.245C8.688 163.351 45.41 96.695 102.771 52.468a253.523 253.523 0 0 1 91.343-44.667C220.852.9 250.327-1.514 278.122.92c60.12 5.264 116.043 31.919 158.773 75.679 20.5 20.993 36.055 43.16 48.777 69.51 14.955 30.973 23.068 61.471 25.932 97.477.495 6.225.496 31.882 0 37.78-1.488 17.738-3.5 30.515-7.131 45.277-12.617 51.299-40.06 97.394-78.961 132.629-24.2 21.919-51.88 38.724-82.637 50.172-5.69 2.118-8.18 2.645-11.32 2.396-6.515-.517-10.84-4.717-11.483-11.15-.103-1.032-.086-16.216.037-33.743.248-35.107.148-45.638-.485-51.046-1.777-15.2-6.625-27.027-14.44-35.225l-2.1-2.204 1.088-.172c.599-.095 2.67-.374 4.604-.62 21.124-2.692 40.848-8.444 55.263-16.117 28.637-15.244 45.799-40.018 52.557-75.872 3.186-16.905 4.055-38.382 2.127-52.568-2.685-19.756-10.576-37.571-23.38-52.787l-1.776-2.11 1.171-3.658c1.22-3.812 2.262-8.45 3.054-13.607.63-4.092.875-15.984.436-21.077-.695-8.068-2.582-17.17-5.227-25.215-1.839-5.595-2.04-5.983-3.23-6.258-1.754-.406-8.724-.296-11.84.188-14.673 2.274-33.385 10.71-53.152 23.962l-4.387 2.94-4.774-1.242c-21.31-5.548-45.94-8.247-67.248-7.37-19.274.794-35.862 3.21-52.485 7.643l-3.63.968-4.385-2.94c-19.813-13.283-38.689-21.772-53.31-23.976-3.47-.523-8.731-.667-11.195-.306-1.89.277-1.686-.063-3.755 6.225-2.51 7.625-4.41 16.553-5.193 24.395-.435 4.362-.438 14.622-.004 18.602.696 6.391 1.812 11.825 3.596 17.512l1.016 3.237-2.108 2.531c-11.703 14.054-19.374 30.553-22.428 48.242-1.517 8.783-2.001 18.872-1.447 30.137 1.2 24.404 5.473 42.89 13.835 59.842 6.947 14.083 16.584 25.598 29.175 34.857 10.719 7.882 24.256 14.144 39.981 18.493 8.348 2.308 19.708 4.552 28.687 5.665 2.243.279 4.125.54 4.183.582.058.042-.862 1.144-2.044 2.45-4.856 5.359-9.008 13.145-11.26 21.112-.655 2.32-1.925 8.11-2.266 10.334l-.163 1.062-3.598 1.454c-4.478 1.808-9.393 3.27-14.36 4.272-3.525.711-4.37.77-10.99.776-6.41.004-7.482-.064-10.091-.647-4.574-1.021-8.027-2.245-11.987-4.249-4.974-2.517-8.29-5.01-12.812-9.636-4.153-4.247-6.342-7.106-9.708-12.677-1.204-1.993-3.078-4.857-4.164-6.364-2.49-3.454-8.855-10.041-11.973-12.39-6.722-5.065-13.439-7.997-20.88-9.116-7.643-1.15-14.867 1.082-14.844 4.585.02 2.945 4.518 7.79 10.99 11.838 10.357 6.478 20.408 20.247 27.087 37.105 2.468 6.23 5.44 10.998 9.795 15.718 9.2 9.968 21.07 15.947 36.353 18.31 5.075.784 15.22 1.071 21.1.597 4.52-.365 12.109-1.431 16.445-2.31 1.47-.298 2.697-.518 2.729-.489.032.03.146 11.404.254 25.277.182 23.49.162 25.342-.295 26.945-.702 2.466-1.43 3.793-3.04 5.538-2.805 3.042-7.346 4.34-12.444 3.556z"/>
</svg>
