<svg xmlns="http://www.w3.org/2000/svg" width="35.958" height="35.843">
  <path fill="gray" d="M1.378 35.586c-.28-.137-.691-.49-.916-.785l-.41-.536-.041-16.029C-.013 9.42.005 2.058.048 1.876c.13-.53.857-1.29 1.525-1.594C2.158.016 2.982.002 17.748 0 27.99-.002 33.502.051 33.875.155c.685.19 1.41.774 1.764 1.422.242.44.265 1.666.308 15.732.026 8.39.004 15.611-.048 16.047-.11.914-.547 1.644-1.283 2.14l-.514.347-16.11-.004c-14.601-.003-16.154-.026-16.614-.253zm9.125-13.472V13.42h-5.34v17.39h5.34zM30.6 24.517c-.05-5.39-.096-6.424-.322-7.208-.874-3.03-2.37-4.179-5.616-4.313-1.377-.057-1.777-.017-2.593.258-1.08.364-2.062 1.047-2.64 1.835l-.385.525V13.42h-5.187v17.238h5.47l.049-5.3c.047-5.199.055-5.316.405-6.026.196-.398.54-.854.764-1.014.608-.433 1.656-.668 2.447-.55.856.13 1.735.942 1.983 1.834.107.387.168 2.483.169 5.806 0 2.86.046 5.244.102 5.3.056.056 1.297.102 2.757.102h2.654zM9.207 10.847c2.423-1.1 2.405-4.507-.03-5.62-3.14-1.439-5.94 2.383-3.586 4.894.902.962 2.424 1.267 3.616.726z"/>
</svg>
